<svg xmlns="http://www.w3.org/2000/svg"  viewBox="0 0 64 64" width="64px" height="64px"><circle cx="49" cy="29.5" r="4" fill="#3e3ef4"/><path fill="#3e3ef4" d="M49,17.5A14.5,14.5,0,1,0,63.5,32,14.51669,14.51669,0,0,0,49,17.5Zm6,25A1.50008,1.50008,0,0,1,53.5,41a4.5,4.5,0,0,0-9,0,1.5,1.5,0,0,1-3,0,7.48738,7.48738,0,0,1,3.10162-6.06189,7,7,0,1,1,8.79676,0A7.48738,7.48738,0,0,1,56.5,41,1.50007,1.50007,0,0,1,55,42.5Z"/><path d="M.94049,49.06158,14.9386,63.05969A1.53388,1.53388,0,0,0,16,63.5H43A4.50491,4.50491,0,0,0,47.5,59V50.73926a1.5,1.5,0,0,0-3,0V59A1.50164,1.50164,0,0,1,43,60.5H17.5V51A4.50491,4.50491,0,0,0,13,46.5H3.5V5A1.50164,1.50164,0,0,1,5,3.5H43A1.50164,1.50164,0,0,1,44.5,5v8.26074a1.5,1.5,0,0,0,3,0V5A4.50491,4.50491,0,0,0,43,.5H5A4.50491,4.50491,0,0,0,.5,5V48A1.508,1.508,0,0,0,.94049,49.06158ZM14.5,51v7.37891L5.62109,49.5H13A1.50164,1.50164,0,0,1,14.5,51Z"/><path d="M24,6.5H8a1.5,1.5,0,0,0,0,3H24a1.5,1.5,0,0,0,0-3Z"/><path d="M19.5,14A1.50007,1.50007,0,0,0,18,12.5H8a1.5,1.5,0,0,0,0,3H18A1.50007,1.50007,0,0,0,19.5,14Z"/><path d="M12,18.5A5.5,5.5,0,1,0,17.5,24,5.50654,5.50654,0,0,0,12,18.5Zm0,8A2.5,2.5,0,1,1,14.5,24,2.50263,2.50263,0,0,1,12,26.5Z"/><path d="M31,19.5H21a1.5,1.5,0,0,0,0,3H31a1.5,1.5,0,0,0,0-3Z"/><path d="M21,28.5h6a1.5,1.5,0,0,0,0-3H21a1.5,1.5,0,0,0,0,3Z"/><path d="M12,32.5A5.5,5.5,0,1,0,17.5,38,5.50654,5.50654,0,0,0,12,32.5Zm0,8A2.5,2.5,0,1,1,14.5,38,2.50263,2.50263,0,0,1,12,40.5Z"/><path d="M32.5,35A1.50007,1.50007,0,0,0,31,33.5H21a1.5,1.5,0,0,0,0,3H31A1.50007,1.50007,0,0,0,32.5,35Z"/><path d="M21,39.5a1.5,1.5,0,0,0,0,3h6a1.5,1.5,0,0,0,0-3Z"/><path d="M39.5,49A1.50007,1.50007,0,0,0,38,47.5H21a1.5,1.5,0,0,0,0,3H38A1.50007,1.50007,0,0,0,39.5,49Z"/><path d="M21,53.5a1.5,1.5,0,0,0,0,3H34a1.5,1.5,0,0,0,0-3Z"/></svg>