<svg fill="#000000" xmlns="http://www.w3.org/2000/svg"  viewBox="0 0 30 30" width="30px" height="30px"><path d="M 14.984375 0.98632812 A 1.0001 1.0001 0 0 0 14 2 L 14 3.0507812 C 8.1822448 3.5345683 3.5345683 8.1822448 3.0507812 14 L 2 14 A 1.0001 1.0001 0 1 0 2 16 L 3.0507812 16 C 3.5345683 21.817755 8.1822448 26.465432 14 26.949219 L 14 28 A 1.0001 1.0001 0 1 0 16 28 L 16 26.949219 C 21.817755 26.465432 26.465432 21.817755 26.949219 16 L 28 16 A 1.0001 1.0001 0 1 0 28 14 L 26.949219 14 C 26.465432 8.1822448 21.817755 3.5345683 16 3.0507812 L 16 2 A 1.0001 1.0001 0 0 0 14.984375 0.98632812 z M 14 5.0488281 L 14 7.0683594 C 10.391622 7.5224207 7.5224207 10.391622 7.0683594 14 L 5.0488281 14 C 5.5164646 9.2670468 9.2670468 5.5164646 14 5.0488281 z M 16 5.0488281 C 20.732953 5.5164646 24.483535 9.2670468 24.951172 14 L 22.931641 14 C 22.477579 10.391622 19.608378 7.5224207 16 7.0683594 L 16 5.0488281 z M 14.003906 9.0878906 A 1.0001 1.0001 0 0 0 15.996094 9.0878906 C 18.518289 9.5063392 20.493661 11.481711 20.912109 14.003906 A 1.0001 1.0001 0 0 0 20.912109 15.996094 C 20.493661 18.518289 18.518289 20.493661 15.996094 20.912109 A 1.0001 1.0001 0 0 0 14.984375 19.986328 A 1.0001 1.0001 0 0 0 14.003906 20.912109 C 11.481711 20.493661 9.5063392 18.518289 9.0878906 15.996094 A 1.0001 1.0001 0 0 0 9.0878906 14.003906 C 9.5063392 11.481711 11.481711 9.5063392 14.003906 9.0878906 z M 15 13 A 2 2 0 0 0 13 15 A 2 2 0 0 0 15 17 A 2 2 0 0 0 17 15 A 2 2 0 0 0 15 13 z M 5.0488281 16 L 7.0683594 16 C 7.5224207 19.608378 10.391622 22.477579 14 22.931641 L 14 24.951172 C 9.2670468 24.483535 5.5164646 20.732953 5.0488281 16 z M 22.931641 16 L 24.951172 16 C 24.483535 20.732953 20.732953 24.483535 16 24.951172 L 16 22.931641 C 19.608378 22.477579 22.477579 19.608378 22.931641 16 z"/></svg>