<svg xmlns="http://www.w3.org/2000/svg"  viewBox="0 0 50 50" width="100px" height="100px"><path d="M 28 0 C 22.613281 0 18.230469 4.285156 18.03125 9.625 L 13.03125 11.90625 L 1.4375 6.09375 C 1.261719 6.007813 1.066406 5.976563 0.875 6 C 0.371094 6.0625 -0.00390625 6.492188 0 7 L 0 43 C -0.00390625 43.386719 0.214844 43.738281 0.5625 43.90625 L 12.5625 49.90625 C 12.839844 50.039063 13.160156 50.039063 13.4375 49.90625 L 25.03125 44.09375 L 37.59375 49.90625 C 37.875 50.03125 38.199219 50.019531 38.46875 49.875 L 49.46875 43.875 C 49.792969 43.703125 49.996094 43.367188 50 43 L 50 7 C 49.996094 6.652344 49.8125 6.328125 49.511719 6.148438 C 49.210938 5.96875 48.839844 5.960938 48.53125 6.125 L 37.84375 11.9375 C 37.933594 11.285156 38 10.640625 38 10 C 38 4.488281 33.511719 0 28 0 Z M 28 2 C 32.429688 2 36 5.570313 36 10 C 36 13.714844 33.863281 18.371094 31.65625 22.03125 C 29.832031 25.054688 28.578125 26.558594 28 27.28125 C 27.429688 26.582031 26.175781 25.140625 24.34375 22.125 C 22.25 18.675781 20.230469 14.296875 20.03125 10.59375 C 20.128906 10.339844 20.117188 10.058594 20 9.8125 C 20.101563 5.46875 23.632813 2 28 2 Z M 28 6 C 25.25 6 23 8.25 23 11 C 23 13.75 25.25 16 28 16 C 30.75 16 33 13.75 33 11 C 33 8.25 30.75 6 28 6 Z M 28 8 C 29.667969 8 31 9.332031 31 11 C 31 12.667969 29.667969 14 28 14 C 26.332031 14 25 12.667969 25 11 C 25 9.332031 26.332031 8 28 8 Z M 2 8.625 L 12.5625 13.90625 C 12.828125 14.03125 13.140625 14.03125 13.40625 13.90625 L 18.09375 11.78125 C 18.589844 15.78125 20.660156 19.867188 22.65625 23.15625 C 24.949219 26.933594 27.25 29.65625 27.25 29.65625 C 27.445313 29.878906 27.726563 30.003906 28.023438 29.996094 C 28.316406 29.992188 28.597656 29.855469 28.78125 29.625 C 28.78125 29.625 31.050781 26.859375 33.34375 23.0625 C 34.96875 20.367188 36.609375 17.160156 37.4375 13.9375 L 37.875 14 C 38.082031 14.019531 38.289063 13.976563 38.46875 13.875 L 48 8.6875 L 48 42.40625 L 37.96875 47.875 L 25.40625 42.09375 C 25.140625 41.96875 24.828125 41.96875 24.5625 42.09375 L 13 47.875 L 2 42.375 Z"/></svg>