<svg xmlns="http://www.w3.org/2000/svg" viewBox="0 0 64 64">
    <path stroke="#200E32" stroke-width="1.5"
        d="m33.616 16.748 7.353-.003a1 1 0 0 0 0-2l-7.353.004a1 1 0 0 0 0 2zM12.86 23.974l28.109-.004a1 1 0 1 0 0-2l-28.109.004a1 1 0 1 0 0 2zm0 7.07 26.121-.004a1 1 0 1 0 0-2l-26.12.003a1 1 0 1 0 0 2zm16.484 5.069H12.86a1 1 0 1 0 0 2h16.484a1 1 0 1 0 0-2zm-9.777 9.434-6.708.004a1 1 0 0 0 .001 2h.001l6.707-.004a1 1 0 0 0 0-2zm30.253-7.173c-2.023-.544-4.003.025-5.574 1.597l-5.113 5.11a1 1 0 0 0 1.414 1.415l5.113-5.111c1.34-1.339 2.722-1.325 3.643-1.08 1.52.408 2.815 1.703 3.223 3.223.247.923.26 2.305-1.08 3.644l-7.207 7.21c-1.128 1.13-2.617.672-3.522-.233-.48-.48-.77-1.061-.816-1.635-.051-.627.193-1.214.724-1.746L47.394 44c.279-.28.504-.26.652-.22.298.08.575.361.657.67.066.243 0 .45-.204.655l-4.846 4.846a1 1 0 1 0 1.415 1.414l4.845-4.846c.71-.709.973-1.652.722-2.587a2.984 2.984 0 0 0-2.071-2.084c-.926-.248-1.869.022-2.584.738l-6.769 6.77c-1.203 1.202-1.373 2.469-1.305 3.32.085 1.047.581 2.072 1.397 2.888.89.891 2.147 1.48 3.429 1.48 1.014 0 2.044-.37 2.921-1.247l7.207-7.21c1.573-1.57 2.14-3.551 1.597-5.576-.586-2.187-2.45-4.05-4.637-4.636z" />
    <path stroke="#200E32" stroke-width="1.5"
        d="M50.29 32.773V5.003A4.008 4.008 0 0 0 46.286 1H10.624c-.244 0-.544.118-.719.29L2.632 8.52c-.172.17-.295.465-.295.71v46.327A4.008 4.008 0 0 0 6.34 59.56h30.254a15.315 15.315 0 0 0 9.68 3.44c8.485 0 15.388-6.903 15.388-15.388 0-7.094-4.832-13.066-11.373-14.839zM9.61 4.414v1.81c0 1.106-.899 2.005-2.004 2.005H5.765L9.61 4.414zM6.34 57.56a2.006 2.006 0 0 1-2.003-2.004V10.23h3.27a4.008 4.008 0 0 0 4.003-4.004V3h34.676c1.105 0 2.004.899 2.004 2.004V32.37a15.39 15.39 0 0 0-2.015-.147c-8.487 0-15.391 6.903-15.391 15.388 0 3.792 1.386 7.263 3.67 9.948H6.34zM46.276 61c-7.383 0-13.391-6.006-13.391-13.388s6.008-13.388 13.391-13.388c7.382 0 13.388 6.006 13.388 13.388S53.657 61 46.275 61z" />
</svg>