<svg xmlns="http://www.w3.org/2000/svg" width="64" height="64" viewBox="0 0 16.933 16.933"><path fill-rule="evenodd" d="M 32.041016 2 C 31.610265 1.9924409 31.188291 2.1224642 30.837891 2.3730469 L 22.958984 8 L 12.003906 8 A 2.0002 2.0002 0 0 0 10.001953 10.001953 L 10.001953 17.255859 L 2.8378906 22.373047 C 2.3123379 22.748354 2.0002895 23.35423 2 24 L 2 60 C 2.0001035 61.104529 2.8954713 61.999887 4 62 L 19.998047 62 C 22.701484 62.037795 22.701484 57.962998 19.998047 58 L 10.804688 58 L 58 27.664062 L 58 52 C 58 55.358602 55.358598 58 52 58 L 36.001953 58 C 33.298516 57.962205 33.298516 62.037002 36.001953 62 L 52 62 C 57.505415 62 62 57.505411 62 52 L 62 24 C 61.999709 23.35423 61.68766 22.748316 61.162109 22.373047 L 53.998047 17.255859 L 53.998047 10.001953 A 2.0002 2.0002 0 0 0 51.998047 8 L 41.041016 8 L 33.162109 2.3730469 C 32.8345 2.1387162 32.443752 2.0086929 32.041016 2 z M 32 6.4570312 L 34.160156 8 L 29.839844 8 L 32 6.4570312 z M 14.003906 12.001953 L 49.998047 12.001953 L 49.998047 28.046875 L 31.933594 39.660156 L 14.003906 28.082031 L 14.003906 12.001953 z M 40.119141 18 A 2.0002 2.0002 0 0 0 40.001953 18.003906 L 23.998047 18.003906 A 2.0002 2.0002 0 1 0 23.998047 21.996094 L 40.001953 21.996094 A 2.0002 2.0002 0 1 0 40.119141 18 z M 10.001953 22.169922 L 10.001953 25.496094 L 7.5566406 23.917969 L 10.001953 22.169922 z M 53.998047 22.169922 L 56.433594 23.910156 L 53.998047 25.474609 L 53.998047 22.169922 z M 23.998047 25.998047 A 2.000504 2.000504 0 0 0 23.998047 29.998047 L 32 29.998047 A 2.000504 2.000504 0 1 0 32 25.998047 L 23.998047 25.998047 z M 6 27.671875 L 28.240234 42.035156 L 6 56.333984 L 6 27.671875 z M 28 58 A 1.9999999 1.9999999 0 0 0 26 60 A 1.9999999 1.9999999 0 0 0 28 62 A 1.9999999 1.9999999 0 0 0 30 60 A 1.9999999 1.9999999 0 0 0 28 58 z " color="#000" font-family="sans-serif" font-weight="400" overflow="visible" paint-order="stroke fill markers" transform="scale(.26458)" style="line-height:normal;font-variant-ligatures:normal;font-variant-position:normal;font-variant-caps:normal;font-variant-numeric:normal;font-variant-alternates:normal;font-feature-settings:normal;text-indent:0;text-align:start;text-decoration-line:none;text-decoration-style:solid;text-decoration-color:#000;text-transform:none;text-orientation:mixed;shape-padding:0;isolation:auto;mix-blend-mode:normal"/></svg>